<svg width="21" height="23" viewBox="0 0 21 23" fill="none" xmlns="http://www.w3.org/2000/svg">
<path d="M4.23069 16.6128L5.07421 15.9766L5.07138 15.9728L4.23069 16.6128ZM9.58717 21.6186L9.01494 22.5068L9.01691 22.508L9.58717 21.6186ZM11.4093 21.6186L10.8348 20.7319L10.8309 20.7344L11.4093 21.6186ZM16.7708 16.6128L17.6116 17.2526L17.6117 17.2525L16.7708 16.6128ZM3.05657 10.3185C3.05657 6.32624 6.40293 3.05657 10.4942 3.05657V0.943434C5.2855 0.943434 0.943434 5.11018 0.943434 10.3185H3.05657ZM5.07138 15.9728C3.80082 14.3039 3.05657 12.3716 3.05657 10.3185H0.943434C0.943434 12.9016 1.88329 15.2736 3.39001 17.2528L5.07138 15.9728ZM10.1594 20.7304C8.13409 19.4256 6.52148 17.8953 5.07421 15.9766L3.38718 17.2491C4.97534 19.3546 6.76844 21.0594 9.01494 22.5068L10.1594 20.7304ZM10.8309 20.7344C10.7885 20.7622 10.6735 20.808 10.5064 20.8096C10.3421 20.8111 10.2192 20.7687 10.1574 20.7291L9.01691 22.508C9.48861 22.8105 10.0338 22.9271 10.5257 22.9226C11.0148 22.9181 11.5441 22.793 11.9878 22.5027L10.8309 20.7344ZM15.9299 15.9731C14.4683 17.8942 12.85 19.4261 10.8348 20.7319L11.9839 22.5053C14.2162 21.0589 16.0116 19.3557 17.6116 17.2526L15.9299 15.9731ZM17.9449 10.3185C17.9449 12.3713 17.1998 14.3037 15.9299 15.9731L17.6117 17.2525C19.117 15.2737 20.058 12.9019 20.058 10.3185H17.9449ZM10.4942 3.05657C14.5996 3.05657 17.9449 6.32729 17.9449 10.3185H20.058C20.058 5.10914 15.7149 0.943434 10.4942 0.943434V3.05657ZM12.5257 10.6994C12.5257 11.8178 11.619 12.7245 10.5006 12.7245V14.8376C12.7861 14.8376 14.6388 12.9849 14.6388 10.6994H12.5257ZM10.5006 8.67432C11.619 8.67432 12.5257 9.58098 12.5257 10.6994H14.6388C14.6388 8.41393 12.7861 6.56118 10.5006 6.56118V8.67432ZM8.47549 10.6994C8.47549 9.58098 9.38215 8.67432 10.5006 8.67432V6.56118C8.2151 6.56118 6.36236 8.41393 6.36236 10.6994H8.47549ZM10.5006 12.7245C9.38215 12.7245 8.47549 11.8178 8.47549 10.6994H6.36236C6.36236 12.9849 8.2151 14.8376 10.5006 14.8376V12.7245Z" fill="#0098FF"/>
</svg>
