<svg width="20" height="21" viewBox="0 0 20 21" fill="none" xmlns="http://www.w3.org/2000/svg">
<path fill-rule="evenodd" clip-rule="evenodd" d="M8.66467 0.312134C3.83586 0.312134 0 4.39146 0 9.32435C0 14.2572 3.83586 18.3366 8.66467 18.3366C13.4935 18.3366 17.3293 14.2572 17.3293 9.32435C17.3293 6.94883 16.4273 4.66174 14.8078 2.96841C13.1868 1.27349 10.9781 0.312134 8.66467 0.312134ZM2.09024 9.32435C2.09024 5.45703 5.07715 2.40237 8.66467 2.40237C10.3929 2.40237 12.0603 3.11979 13.2972 4.41312C14.5356 5.70803 15.2391 7.47386 15.2391 9.32435C15.2391 13.1917 12.2522 16.2463 8.66467 16.2463C5.07715 16.2463 2.09024 13.1917 2.09024 9.32435ZM17.1237 16.4983C16.7225 16.0833 16.0609 16.0721 15.6459 16.4733C15.2309 16.8745 15.2197 17.5361 15.6208 17.9511L18.2042 20.6235C18.6054 21.0385 19.267 21.0498 19.682 20.6486C20.097 20.2474 20.1082 19.5858 19.707 19.1708L17.1237 16.4983Z" fill="white"/>
</svg>
