<svg width="25" height="25" viewBox="0 0 25 25" fill="none" xmlns="http://www.w3.org/2000/svg">
<path fill-rule="evenodd" clip-rule="evenodd" d="M6.58008 9.45124H4.61087L4.60748 9.45125C3.15447 9.45492 1.9776 10.6341 1.9776 12.088V20.3771C1.9776 21.8334 3.15814 23.0139 4.61441 23.0139H19.3875C20.8438 23.0139 22.0243 21.8334 22.0243 20.3771V12.088C22.0243 10.6346 20.8483 9.45577 19.3961 9.45125L19.3918 9.45124H17.4246H6.58008ZM6.58008 5.74448C6.58008 5.661 6.58279 5.57816 6.58814 5.49603C6.71606 3.53146 8.35004 1.9776 10.3469 1.9776H13.6577C15.6546 1.9776 17.2886 3.53146 17.4165 5.49603C17.4219 5.57816 17.4246 5.661 17.4246 5.74447V7.47364H15.447H8.55768H6.58008V5.74448ZM4.60248 5.74448V7.47365C2.0595 7.48009 0 9.54356 0 12.088V20.3771C0 22.9256 2.06594 24.9915 4.61441 24.9915H19.3875C21.936 24.9915 24.002 22.9256 24.002 20.3771V12.088C24.002 9.54446 21.9439 7.48156 19.4022 7.47366V5.74447C19.4022 2.57189 16.8303 0 13.6577 0H10.3469C7.17436 0 4.60248 2.57189 4.60248 5.74448ZM12.9892 15.1645C12.9892 14.6184 12.5465 14.1757 12.0004 14.1757C11.4543 14.1757 11.0116 14.6184 11.0116 15.1645V17.3009C11.0116 17.847 11.4543 18.2897 12.0004 18.2897C12.5465 18.2897 12.9892 17.847 12.9892 17.3009V15.1645Z" fill="#200E32"/>
</svg>
