<svg width="33" height="33" viewBox="0 0 33 33" fill="none" xmlns="http://www.w3.org/2000/svg">
<circle cx="16.5" cy="16.5" r="16.5" fill="#0098FF"/>
<mask id="path-2-inside-1_36_3505" fill="white">
<path d="M8 13.6136C8 11.0656 10.0656 9 12.6136 9H20.3864C22.9344 9 25 11.0656 25 13.6136V19.5023C25 22.0504 22.9344 24.116 20.3864 24.116H12.6136C10.0656 24.116 8 22.0504 8 19.5023V13.6136Z"/>
</mask>
<path d="M12.6136 10.9773H20.3864V7.02273H12.6136V10.9773ZM23.0227 13.6136V19.5023H26.9773V13.6136H23.0227ZM20.3864 22.1387H12.6136V26.0932H20.3864V22.1387ZM9.97727 19.5023V13.6136H6.02273V19.5023H9.97727ZM12.6136 22.1387C11.1576 22.1387 9.97727 20.9584 9.97727 19.5023H6.02273C6.02273 23.1424 8.97358 26.0932 12.6136 26.0932V22.1387ZM23.0227 19.5023C23.0227 20.9584 21.8424 22.1387 20.3864 22.1387V26.0932C24.0264 26.0932 26.9773 23.1424 26.9773 19.5023H23.0227ZM20.3864 10.9773C21.8424 10.9773 23.0227 12.1576 23.0227 13.6136H26.9773C26.9773 9.97357 24.0264 7.02273 20.3864 7.02273V10.9773ZM12.6136 7.02273C8.97357 7.02273 6.02273 9.97357 6.02273 13.6136H9.97727C9.97727 12.1576 11.1576 10.9773 12.6136 10.9773V7.02273Z" fill="white" mask="url(#path-2-inside-1_36_3505)"/>
<path d="M11.5028 13.0129C11.1224 12.8265 10.6787 13.0199 10.5118 13.4449C10.3449 13.8699 10.5181 14.3655 10.8985 14.5519L16.1963 17.1474C16.2002 17.1493 16.2041 17.1512 16.208 17.153C16.3036 17.1982 16.403 17.2196 16.5008 17.2195C16.5986 17.2196 16.698 17.1982 16.7935 17.153C16.7974 17.1512 16.8013 17.1493 16.8052 17.1474L22.103 14.5519C22.4835 14.3655 22.6567 13.8699 22.4898 13.4449C22.3229 13.0199 21.8792 12.8265 21.4987 13.0129L17.0807 15.1773C16.7149 15.3566 16.2867 15.3566 15.9208 15.1773L11.5028 13.0129Z" fill="white"/>
</svg>
