<svg width="33" height="33" viewBox="0 0 33 33" fill="none" xmlns="http://www.w3.org/2000/svg">
<path d="M0 16.5C0 7.3873 7.3873 0 16.5 0C25.6127 0 33 7.3873 33 16.5C33 25.6127 25.6127 33 16.5 33C7.3873 33 0 25.6127 0 16.5Z" fill="#0A66C2"/>
<path fill-rule="evenodd" clip-rule="evenodd" d="M11.9068 10.1906C11.9068 11.2694 11.0948 12.1326 9.79101 12.1326H9.76712C8.51176 12.1326 7.7002 11.2694 7.7002 10.1906C7.7002 9.08903 8.53648 8.25 9.81565 8.25C11.0948 8.25 11.8826 9.08903 11.9068 10.1906ZM11.6606 13.666V24.9009H7.92131V13.666H11.6606ZM25.1456 24.9009L25.1458 18.4592C25.1458 15.0083 23.3011 13.4022 20.8405 13.4022C18.8552 13.4022 17.9663 14.4927 17.47 15.2577V13.6663H13.7303C13.7796 14.7205 13.7303 24.9012 13.7303 24.9012H17.47V18.6267C17.47 18.291 17.4943 17.956 17.5932 17.7156C17.8634 17.0448 18.4787 16.3503 19.5118 16.3503C20.8654 16.3503 21.4065 17.3805 21.4065 18.8903V24.9009H25.1456Z" fill="white"/>
</svg>
