<svg width="31" height="30" viewBox="0 0 31 30" fill="none" xmlns="http://www.w3.org/2000/svg">
<mask id="mask0_28_4487" style="mask-type:alpha" maskUnits="userSpaceOnUse" x="0" y="0" width="31" height="30">
<ellipse cx="15.5" cy="14.9833" rx="15.5" ry="14.9833" fill="#C4C4C4"/>
</mask>
<g mask="url(#mask0_28_4487)">
<g clip-path="url(#clip0_28_4487)">
<path d="M31 0H0V29.9667H31V0Z" fill="#F0F0F0"/>
<path d="M0 17.7927H12.5938V29.9667H18.4062V17.7927H31V12.174H18.4062V0H12.5938V12.174H0V17.7927Z" fill="#D80027"/>
<path d="M24.6377 19.5435L31 25.6936V19.5435H24.6377Z" fill="#0052B4"/>
<path d="M20.2178 19.5435L31.0004 29.9666V27.0191L23.2669 19.5435H20.2178Z" fill="#0052B4"/>
<path d="M28.1283 29.9667L20.2178 22.3191V29.9667H28.1283Z" fill="#0052B4"/>
<path d="M20.2178 19.5435L31.0004 29.9666V27.0191L23.2669 19.5435H20.2178Z" fill="#F0F0F0"/>
<path d="M20.2178 19.5435L31.0004 29.9666V27.0191L23.2669 19.5435H20.2178Z" fill="#D80027"/>
<path d="M4.86204 19.5435L0 24.2434V19.5435H4.86204Z" fill="#0052B4"/>
<path d="M10.7826 20.8689V29.9665H1.37207L10.7826 20.8689Z" fill="#0052B4"/>
<path d="M7.73329 19.5437L0 27.0193V29.9667L10.7824 19.5437H7.73329Z" fill="#D80027"/>
<path d="M6.36227 10.4231L0 4.27295V10.4231H6.36227Z" fill="#0052B4"/>
<path d="M10.7826 10.4232L0 0V2.9475L7.73347 10.4232H10.7826Z" fill="#0052B4"/>
<path d="M2.87207 0L10.7826 7.64753V0H2.87207Z" fill="#0052B4"/>
<path d="M10.7826 10.4232L0 0V2.9475L7.73347 10.4232H10.7826Z" fill="#F0F0F0"/>
<path d="M10.7826 10.4232L0 0V2.9475L7.73347 10.4232H10.7826Z" fill="#D80027"/>
<path d="M26.1377 10.4232L30.9997 5.72327V10.4232H26.1377Z" fill="#0052B4"/>
<path d="M20.2178 9.09782V0.000244141H29.6283L20.2178 9.09782Z" fill="#0052B4"/>
<path d="M23.2669 10.423L31.0002 2.94744V0L20.2178 10.423H23.2669Z" fill="#D80027"/>
</g>
</g>
<defs>
<clipPath id="clip0_28_4487">
<rect width="31" height="29.9667" fill="white"/>
</clipPath>
</defs>
</svg>
