<svg width="31" height="30" viewBox="0 0 31 30" fill="none" xmlns="http://www.w3.org/2000/svg">
<mask id="mask0_37_3596" style="mask-type:alpha" maskUnits="userSpaceOnUse" x="0" y="0" width="31" height="30">
<ellipse cx="15.5" cy="14.9833" rx="15.5" ry="14.9833" fill="#C4C4C4"/>
</mask>
<g mask="url(#mask0_37_3596)">
<g clip-path="url(#clip0_37_3596)">
<path d="M31 0H0V29.9667H31V0Z" fill="#F0F0F0"/>
<path d="M0 17.7927H12.5938V29.9667H18.4062V17.7927H31V12.174H18.4062V0H12.5938V12.174H0V17.7927Z" fill="#D80027"/>
<path d="M24.6367 19.5435L30.999 25.6936V19.5435H24.6367Z" fill="#0052B4"/>
<path d="M20.2168 19.5435L30.9994 29.9666V27.0191L23.2659 19.5435H20.2168Z" fill="#0052B4"/>
<path d="M28.1273 29.9667L20.2168 22.3191V29.9667H28.1273Z" fill="#0052B4"/>
<path d="M20.2168 19.5435L30.9994 29.9666V27.0191L23.2659 19.5435H20.2168Z" fill="#F0F0F0"/>
<path d="M20.2168 19.5435L30.9994 29.9666V27.0191L23.2659 19.5435H20.2168Z" fill="#D80027"/>
<path d="M4.86204 19.5435L0 24.2434V19.5435H4.86204Z" fill="#0052B4"/>
<path d="M10.7816 20.8689V29.9665H1.37109L10.7816 20.8689Z" fill="#0052B4"/>
<path d="M7.73329 19.5437L0 27.0193V29.9667L10.7824 19.5437H7.73329Z" fill="#D80027"/>
<path d="M6.36227 10.4231L0 4.27295V10.4231H6.36227Z" fill="#0052B4"/>
<path d="M10.7826 10.4232L0 0V2.9475L7.73347 10.4232H10.7826Z" fill="#0052B4"/>
<path d="M2.87305 0L10.7836 7.64753V0H2.87305Z" fill="#0052B4"/>
<path d="M10.7826 10.4232L0 0V2.9475L7.73347 10.4232H10.7826Z" fill="#F0F0F0"/>
<path d="M10.7826 10.4232L0 0V2.9475L7.73347 10.4232H10.7826Z" fill="#D80027"/>
<path d="M26.1367 10.4232L30.9988 5.72327V10.4232H26.1367Z" fill="#0052B4"/>
<path d="M20.2168 9.09782V0.000244141H29.6274L20.2168 9.09782Z" fill="#0052B4"/>
<path d="M23.2659 10.423L30.9992 2.94744V0L20.2168 10.423H23.2659Z" fill="#D80027"/>
</g>
</g>
<defs>
<clipPath id="clip0_37_3596">
<rect width="31" height="29.9667" fill="white"/>
</clipPath>
</defs>
</svg>
