<svg width="32" height="32" viewBox="0 0 32 32" fill="none" xmlns="http://www.w3.org/2000/svg">
<path d="M0 16C0 7.16344 7.16344 0 16 0C24.8366 0 32 7.16344 32 16C32 24.8366 24.8366 32 16 32C7.16344 32 0 24.8366 0 16Z" fill="#55ACEE"/>
<path d="M16.0348 12.6109L16.0796 13.3607L15.333 13.2689C12.6152 12.9169 10.2409 11.7235 8.22499 9.71918L7.23942 8.72466L6.98557 9.45907C6.44798 11.0962 6.79144 12.8251 7.9114 13.988C8.50871 14.6306 8.37432 14.7224 7.34395 14.3399C6.98557 14.2175 6.67198 14.1257 6.64211 14.1716C6.53758 14.2787 6.89597 15.671 7.17969 16.2218C7.56794 16.9868 8.35938 17.7365 9.22549 18.1803L9.95719 18.5322L9.09109 18.5475C8.25485 18.5475 8.22499 18.5628 8.31458 18.8841C8.61324 19.8786 9.79293 20.9343 11.107 21.3933L12.0329 21.7146L11.2265 22.2042C10.0319 22.9081 8.62817 23.3059 7.22449 23.3365C6.55251 23.3518 6 23.413 6 23.4589C6 23.6119 7.8218 24.4687 8.88203 24.8053C12.0627 25.7998 15.8407 25.3714 18.678 23.6731C20.6939 22.4643 22.7098 20.0622 23.6506 17.7365C24.1583 16.4972 24.666 14.2328 24.666 13.1464C24.666 12.4426 24.7108 12.3508 25.547 11.5093C26.0398 11.0197 26.5027 10.4842 26.5923 10.3312C26.7417 10.0405 26.7267 10.0405 25.9652 10.3006C24.6959 10.7596 24.5167 10.6984 25.1439 10.0099C25.6068 9.52027 26.1593 8.63286 26.1593 8.37275C26.1593 8.32685 25.9353 8.40335 25.6814 8.54105C25.4126 8.69406 24.8153 8.92356 24.3674 9.06126L23.561 9.32137L22.8293 8.81646C22.4261 8.54105 21.8586 8.23505 21.56 8.14325C20.7984 7.92904 19.6337 7.95964 18.9467 8.20445C17.0801 8.89296 15.9005 10.6678 16.0348 12.6109Z" fill="white"/>
</svg>
