<svg width="21" height="21" viewBox="0 0 21 21" fill="none" xmlns="http://www.w3.org/2000/svg">
<path fill-rule="evenodd" clip-rule="evenodd" d="M18.0011 10.001C18.0011 14.4193 14.4193 18.0011 10.001 18.0011C5.58264 18.0011 2.00087 14.4193 2.00087 10.001C2.00087 5.58264 5.58264 2.00087 10.001 2.00087C14.4193 2.00087 18.0011 5.58264 18.0011 10.001ZM20.002 10.001C20.002 15.5244 15.5244 20.002 10.001 20.002C4.47759 20.002 0 15.5244 0 10.001C0 4.47759 4.47759 0 10.001 0C15.5244 0 20.002 4.47759 20.002 10.001ZM11.0015 5.79799C11.0015 5.24547 10.5536 4.79756 10.001 4.79756C9.44851 4.79756 9.0006 5.24547 9.0006 5.79799V9.80558C9.0006 10.5187 9.32655 11.1927 9.88553 11.6354L13.0511 14.1428C13.4842 14.4859 14.1134 14.4129 14.4565 13.9798C14.7996 13.5467 14.7266 12.9175 14.2934 12.5744L11.1279 10.067C11.048 10.0037 11.0015 9.90745 11.0015 9.80558V5.79799Z" fill="white"/>
</svg>
