<svg width="28" height="15" viewBox="0 0 28 15" fill="none" xmlns="http://www.w3.org/2000/svg">
<path fill-rule="evenodd" clip-rule="evenodd" d="M1.5 0C0.671573 0 0 0.671573 0 1.5C0 2.32843 0.671573 3 1.5 3H13.5C14.3284 3 15 2.32843 15 1.5C15 0.671573 14.3284 0 13.5 0H1.5ZM0 7.5C0 6.67157 0.671573 6 1.5 6H20.5C21.3284 6 22 6.67157 22 7.5C22 8.32843 21.3284 9 20.5 9H1.5C0.671573 9 0 8.32843 0 7.5ZM0 13.5C0 12.6716 0.671573 12 1.5 12H26.5C27.3284 12 28 12.6716 28 13.5C28 14.3284 27.3284 15 26.5 15H1.5C0.671572 15 0 14.3284 0 13.5Z" fill="white"/>
</svg>
