<svg width="634" height="625" viewBox="0 0 634 625" fill="none" xmlns="http://www.w3.org/2000/svg">
<circle cx="321.5" cy="312.5" r="311.5" stroke="#FF9B56" stroke-width="2"/>
<path fill-rule="evenodd" clip-rule="evenodd" d="M184.297 43.4607C184.819 43.6399 185.388 43.3617 185.567 42.8393L189.461 31.4884C189.64 30.966 189.361 30.3973 188.839 30.2181C188.839 30.2179 188.838 30.2178 188.838 30.2176L177.488 26.3247C176.966 26.1455 176.397 26.4237 176.218 26.9461C176.039 27.4685 176.317 28.0373 176.839 28.2165L187.244 31.7854L183.675 42.1904C183.496 42.7128 183.774 43.2815 184.297 43.4607Z" fill="#FF9B56"/>
<path fill-rule="evenodd" clip-rule="evenodd" d="M570.496 141.094C570.395 141.636 570.753 142.159 571.296 142.259L583.087 144.453C583.09 144.453 583.092 144.453 583.094 144.454C583.637 144.555 584.159 144.196 584.26 143.653L586.454 131.856C586.555 131.313 586.197 130.791 585.654 130.69C585.111 130.589 584.589 130.947 584.488 131.49L582.477 142.305L571.662 140.293C571.119 140.192 570.597 140.551 570.496 141.094Z" fill="#FF9B56"/>
<path fill-rule="evenodd" clip-rule="evenodd" d="M579.864 468.943C579.327 469.073 578.997 469.613 579.126 470.15L581.942 481.808C581.942 481.81 581.943 481.812 581.943 481.815C582.073 482.352 582.613 482.682 583.15 482.552L594.815 479.735C595.352 479.605 595.682 479.065 595.552 478.528C595.422 477.991 594.882 477.661 594.345 477.791L583.653 480.373L581.07 469.68C580.941 469.143 580.401 468.813 579.864 468.943Z" fill="#FF9B56"/>
<path fill-rule="evenodd" clip-rule="evenodd" d="M227.852 599.88C227.595 599.391 226.99 599.203 226.502 599.46L215.886 605.041C215.884 605.042 215.882 605.043 215.88 605.044C215.391 605.301 215.203 605.906 215.46 606.395L221.043 617.016C221.3 617.505 221.905 617.693 222.394 617.436C222.883 617.179 223.071 616.575 222.814 616.086L217.695 606.349L227.432 601.231C227.921 600.974 228.109 600.369 227.852 599.88Z" fill="#FF9B56"/>
<path fill-rule="evenodd" clip-rule="evenodd" d="M19.0581 303.903C19.4613 303.526 19.4821 302.893 19.1046 302.49L10.9073 293.735C10.9058 293.733 10.9042 293.732 10.9027 293.73C10.5252 293.327 9.89241 293.306 9.48926 293.683L0.729673 301.885C0.326523 302.263 0.305707 302.895 0.683182 303.299C1.06066 303.702 1.69348 303.723 2.09663 303.345L10.1262 295.827L17.6447 303.857C18.0221 304.26 18.655 304.281 19.0581 303.903Z" fill="#FF9B56"/>
</svg>
