<svg width="17" height="20" viewBox="0 0 17 20" fill="none" xmlns="http://www.w3.org/2000/svg">
<mask id="path-1-inside-1_26_3618" fill="white">
<path fill-rule="evenodd" clip-rule="evenodd" d="M8.49968 9.4011C11.0957 9.4011 13.2002 7.29659 13.2002 4.70055C13.2002 2.10451 11.0957 0 8.49968 0C5.90364 0 3.79913 2.10451 3.79913 4.70055C3.79913 7.29659 5.90364 9.4011 8.49968 9.4011ZM8.49855 19.8144C3.80493 19.8144 0 18.6485 0 16.2352C0 13.8219 3.80493 11.075 8.49855 11.075C13.1922 11.075 16.9976 13.8219 16.9976 16.2352C16.9976 18.6485 13.1922 19.8144 8.49855 19.8144Z"/>
</mask>
<path d="M8.49855 11.075V13.2752V13.2752V11.075ZM11.0001 4.70055C11.0001 6.08147 9.88061 7.20094 8.49968 7.20094V11.6013C12.3108 11.6013 15.4004 8.51171 15.4004 4.70055H11.0001ZM8.49968 2.20016C9.88061 2.20016 11.0001 3.31962 11.0001 4.70055H15.4004C15.4004 0.889391 12.3108 -2.20016 8.49968 -2.20016V2.20016ZM5.99929 4.70055C5.99929 3.31962 7.11875 2.20016 8.49968 2.20016V-2.20016C4.68852 -2.20016 1.59897 0.889392 1.59897 4.70055H5.99929ZM8.49968 7.20094C7.11875 7.20094 5.99929 6.08147 5.99929 4.70055H1.59897C1.59897 8.51171 4.68852 11.6013 8.49968 11.6013V7.20094ZM-2.20016 16.2352C-2.20016 18.8597 -0.0869563 20.2944 1.69747 20.9826C3.58835 21.7119 6.01482 22.0146 8.49855 22.0146V17.6143C6.28866 17.6143 4.46585 17.334 3.28086 16.877C2.69089 16.6495 2.38712 16.4267 2.25622 16.2902C2.19859 16.23 2.18942 16.2024 2.19336 16.2116C2.19921 16.2252 2.20016 16.2393 2.20016 16.2352H-2.20016ZM8.49855 8.87488C5.7392 8.87488 3.20012 9.67789 1.29966 10.8993C-0.478981 12.0423 -2.20016 13.9121 -2.20016 16.2352H2.20016C2.20016 16.1451 2.38144 15.4347 3.67868 14.601C4.85408 13.8456 6.56428 13.2752 8.49855 13.2752V8.87488ZM19.1977 16.2352C19.1977 13.9119 17.4763 12.0422 15.6976 10.8992C13.7971 9.67788 11.2579 8.87488 8.49855 8.87488V13.2752C10.4328 13.2752 12.1432 13.8456 13.3187 14.6011C14.6161 15.4348 14.7974 16.1452 14.7974 16.2352H19.1977ZM8.49855 22.0146C10.9823 22.0146 13.4088 21.7119 15.2998 20.9826C17.0842 20.2945 19.1977 18.8599 19.1977 16.2352H14.7974C14.7974 16.2392 14.7984 16.2251 14.8042 16.2115C14.8082 16.2023 14.799 16.2299 14.7413 16.2901C14.6104 16.4267 14.3066 16.6495 13.7165 16.877C12.5314 17.334 10.7084 17.6143 8.49855 17.6143V22.0146Z" fill="white" mask="url(#path-1-inside-1_26_3618)"/>
</svg>
