<svg width="31" height="30" viewBox="0 0 31 30" fill="none" xmlns="http://www.w3.org/2000/svg">
<mask id="mask0_40_5014" style="mask-type:alpha" maskUnits="userSpaceOnUse" x="0" y="0" width="31" height="30">
<ellipse cx="15.5" cy="14.9833" rx="15.5" ry="14.9833" fill="#C4C4C4"/>
</mask>
<g mask="url(#mask0_40_5014)">
<g clip-path="url(#clip0_40_5014)">
<path d="M31 0H0V29.9667H31V0Z" fill="#F0F0F0"/>
<path d="M0 17.7927H12.5938V29.9667H18.4062V17.7927H31V12.174H18.4062V0H12.5938V12.174H0V17.7927Z" fill="#D80027"/>
<path d="M24.6406 19.5435L31.0029 25.6936V19.5435H24.6406Z" fill="#0052B4"/>
<path d="M20.2188 19.5435L31.0014 29.9666V27.0191L23.2679 19.5435H20.2188Z" fill="#0052B4"/>
<path d="M28.1293 29.9667L20.2188 22.3191V29.9667H28.1293Z" fill="#0052B4"/>
<path d="M20.2188 19.5435L31.0014 29.9666V27.0191L23.2679 19.5435H20.2188Z" fill="#F0F0F0"/>
<path d="M20.2188 19.5435L31.0014 29.9666V27.0191L23.2679 19.5435H20.2188Z" fill="#D80027"/>
<path d="M4.86204 19.5435L0 24.2434V19.5435H4.86204Z" fill="#0052B4"/>
<path d="M10.7816 20.8689V29.9665H1.37109L10.7816 20.8689Z" fill="#0052B4"/>
<path d="M7.73329 19.5437L0 27.0193V29.9667L10.7824 19.5437H7.73329Z" fill="#D80027"/>
<path d="M6.36227 10.4231L0 4.27295V10.4231H6.36227Z" fill="#0052B4"/>
<path d="M10.7826 10.4232L0 0V2.9475L7.73347 10.4232H10.7826Z" fill="#0052B4"/>
<path d="M2.87109 0L10.7816 7.64753V0H2.87109Z" fill="#0052B4"/>
<path d="M10.7826 10.4232L0 0V2.9475L7.73347 10.4232H10.7826Z" fill="#F0F0F0"/>
<path d="M10.7826 10.4232L0 0V2.9475L7.73347 10.4232H10.7826Z" fill="#D80027"/>
<path d="M26.1406 10.4232L31.0027 5.72327V10.4232H26.1406Z" fill="#0052B4"/>
<path d="M20.2188 9.09782V0.000244141H29.6293L20.2188 9.09782Z" fill="#0052B4"/>
<path d="M23.2679 10.423L31.0012 2.94744V0L20.2188 10.423H23.2679Z" fill="#D80027"/>
</g>
</g>
<defs>
<clipPath id="clip0_40_5014">
<rect width="31" height="29.9667" fill="white"/>
</clipPath>
</defs>
</svg>
